<?xml version="1.0" encoding="UTF-8"?>
<svg xmlns="http://www.w3.org/2000/svg" id="avatar" viewBox="0 0 64 64" width="512" height="512"><path fill="#26c7ac" d="M44,44h-.61a2.846,2.846,0,0,0-.36-1.01A3.052,3.052,0,0,0,41,41.58l-2.46-.36-.05-.83A13.99,13.99,0,0,0,46,28V27h1a3.009,3.009,0,0,0,3-3V21a3.009,3.009,0,0,0-3-3h-.35A9.986,9.986,0,0,0,38,3a9.584,9.584,0,0,0-2.73.39A14.779,14.779,0,0,0,29,2,15.018,15.018,0,0,0,14,17a1,1,0,0,0,1,1h2a3.009,3.009,0,0,0-3,3v3a3.009,3.009,0,0,0,3,3h1v1a13.99,13.99,0,0,0,7.51,12.39l-.05.83-2.51.37a3.024,3.024,0,0,0-1.98,1.4A2.846,2.846,0,0,0,20.61,44H20a9.014,9.014,0,0,0-9,9v8a1,1,0,0,0,1,1H52a1,1,0,0,0,1-1V53A9.014,9.014,0,0,0,44,44Zm-3.35-.45a.972.972,0,0,1,.66.47.955.955,0,0,1,.1.79l-1.94,6.48-3.28-2.62,2.07-5.47ZM47,20a1,1,0,0,1,1,1v3a1,1,0,0,1-1,1H46V20ZM18,25H17a1,1,0,0,1-1-1V21a1,1,0,0,1,1-1h1Zm-1.96-9A13.017,13.017,0,0,1,29,4a12.828,12.828,0,0,1,5.75,1.36,1.049,1.049,0,0,0,.76.05A7.693,7.693,0,0,1,38,5a8.011,8.011,0,0,1,8,8,7.868,7.868,0,0,1-.64,3.11A6.945,6.945,0,0,0,43.2,13.4,7.042,7.042,0,0,0,39,12H25a6.952,6.952,0,0,0-6.31,4ZM20,28V19a5,5,0,0,1,5-5H39a5,5,0,0,1,5,5v9a12,12,0,0,1-24,0Zm2.69,16.02a.948.948,0,0,1,.61-.46l2.44-.36,2.07,5.47-.35.28-2.93,2.34-1.94-6.48A.955.955,0,0,1,22.69,44.02ZM31,60H13V53a7.008,7.008,0,0,1,7-7h.86l2.18,7.29a.992.992,0,0,0,.66.66A.789.789,0,0,0,24,54a1,1,0,0,0,.62-.22l3.45-2.76L31,53.47ZM29.66,49.74a.994.994,0,0,0,.28-1.09l-2.53-6.69.05-.73a13.769,13.769,0,0,0,9.08,0l.05.73-2.53,6.69a.994.994,0,0,0,.28,1.09L32,51.7ZM51,60H33V53.47l2.93-2.45,3.45,2.76A1,1,0,0,0,40,54a.789.789,0,0,0,.3-.05.992.992,0,0,0,.66-.66L43.14,46H44a7.008,7.008,0,0,1,7,7Z"/><path fill="#ec5a4a" d="M27,21a1,1,0,0,0-1,1v2a1,1,0,0,0,2,0V22A1,1,0,0,0,27,21Z"/><path fill="#ec5a4a" d="M37,25a1,1,0,0,0,1-1V22a1,1,0,0,0-2,0v2A1,1,0,0,0,37,25Z"/></svg>
