<svg width="126" height="52" viewBox="0 0 126 52" fill="none" xmlns="http://www.w3.org/2000/svg">
<g filter="url(#filter0_d)">
<path d="M36.6586 2L66.6738 38.8447H6.64337L36.6586 2Z" fill="#EC5A4A"/>
<path d="M37.0462 1.6842L36.6586 1.20835L36.2709 1.6842L6.25572 38.5289L5.59114 39.3447H6.64337H66.6738H67.726L67.0615 38.5289L37.0462 1.6842Z" stroke="black" stroke-opacity="0.56"/>
</g>
<path d="M24.077 17.6463H29.537L30.7239 16.4687L33.3352 17.1416H37.1334L38.7951 18.3193L41.1689 19.6652L42.8307 18.1511L44.255 17.3099C44.4132 17.1416 44.8247 16.8388 45.2045 16.9734C45.6793 17.1416 46.3915 17.6463 46.6289 17.6463C46.8188 17.6463 47.4993 17.9828 47.8158 18.1511L48.2906 17.6463V16.9734H48.528H48.7654L36.6586 2.16821L24.077 17.6463Z" fill="white" stroke="black" stroke-opacity="0.56"/>
<g filter="url(#filter1_d)">
<path d="M60.3973 2L90.4125 38.8447H30.3821L60.3973 2Z" fill="#EC5A4A"/>
<path d="M60.785 1.6842L60.3973 1.20835L60.0097 1.6842L29.9945 38.5289L29.3299 39.3447H30.3821H90.4125H91.4648L90.8002 38.5289L60.785 1.6842Z" stroke="black" stroke-opacity="0.56"/>
</g>
<path d="M47.8158 17.6463H53.2757L54.4626 16.4687L57.0739 17.1416H60.8721L62.5338 18.3193L64.9077 19.6652L66.5694 18.1511L67.9937 17.3099C68.152 17.1416 68.5635 16.8388 68.9433 16.9734C69.418 17.1416 70.1302 17.6463 70.3676 17.6463C70.5575 17.6463 71.238 17.9828 71.5545 18.1511L72.0293 17.6463V16.9734H72.2667H72.5041L60.3973 2.16821L47.8158 17.6463Z" fill="white" stroke="black" stroke-opacity="0.56"/>
<g filter="url(#filter2_d)">
<path d="M82.7118 2L112.727 38.8447H52.6966L82.7118 2Z" fill="#EC5A4A"/>
<path d="M83.0994 1.6842L82.7118 1.20835L82.3241 1.6842L52.3089 38.5289L51.6443 39.3447H52.6966H112.727H113.779L113.115 38.5289L83.0994 1.6842Z" stroke="black" stroke-opacity="0.56"/>
</g>
<path d="M70.1302 17.6463H75.5902L76.7771 16.4687L79.3884 17.1416H83.1866L84.8483 18.3193L87.2222 19.6652L88.8839 18.1511L90.3082 17.3099C90.4665 17.1416 90.8779 16.8388 91.2577 16.9734C91.7325 17.1416 92.4447 17.6463 92.6821 17.6463C92.872 17.6463 93.5525 17.9828 93.869 18.1511L94.3438 17.6463V16.9734H94.5812H94.8186L82.7118 2.16821L70.1302 17.6463Z" fill="white" stroke="black" stroke-opacity="0.56"/>
<path d="M25.236 35.12C24.564 35.12 24.02 34.928 23.604 34.544C23.204 34.144 23.004 33.616 23.004 32.96V21.656H19.62C18.916 21.656 18.388 21.512 18.036 21.224C17.7 20.92 17.532 20.464 17.532 19.856C17.532 19.248 17.7 18.8 18.036 18.512C18.388 18.224 18.916 18.08 19.62 18.08H30.852C31.556 18.08 32.076 18.224 32.412 18.512C32.764 18.8 32.94 19.248 32.94 19.856C32.94 20.464 32.764 20.92 32.412 21.224C32.076 21.512 31.556 21.656 30.852 21.656H27.468V32.96C27.468 33.616 27.26 34.144 26.844 34.544C26.444 34.928 25.908 35.12 25.236 35.12ZM39.6067 22.952C40.1507 22.904 40.5827 23.032 40.9027 23.336C41.2227 23.624 41.3827 24.056 41.3827 24.632C41.3827 25.272 41.2307 25.736 40.9267 26.024C40.6387 26.312 40.1107 26.496 39.3427 26.576L38.6227 26.648C37.8227 26.744 37.2467 27 36.8947 27.416C36.5587 27.816 36.3907 28.368 36.3907 29.072V33.176C36.3907 33.832 36.1827 34.328 35.7667 34.664C35.3667 34.984 34.8627 35.144 34.2547 35.144C33.6467 35.144 33.1347 34.984 32.7187 34.664C32.3187 34.328 32.1187 33.832 32.1187 33.176V24.872C32.1187 24.264 32.3187 23.792 32.7187 23.456C33.1347 23.12 33.6307 22.952 34.2067 22.952C34.7987 22.952 35.2707 23.112 35.6227 23.432C35.9907 23.752 36.1747 24.2 36.1747 24.776V25.232C36.4307 24.528 36.8467 23.984 37.4227 23.6C38.0147 23.216 38.6307 23.008 39.2707 22.976L39.6067 22.952ZM47.6928 22.904C49.5168 22.904 50.8608 23.344 51.7248 24.224C52.6048 25.088 53.0448 26.408 53.0448 28.184V33.2C53.0448 33.808 52.8608 34.288 52.4928 34.64C52.1408 34.976 51.6448 35.144 51.0048 35.144C50.4448 35.144 49.9808 34.984 49.6128 34.664C49.2608 34.344 49.0688 33.912 49.0368 33.368C48.8128 33.944 48.4368 34.392 47.9088 34.712C47.3808 35.032 46.7488 35.192 46.0128 35.192C45.1968 35.192 44.4608 35.032 43.8048 34.712C43.1488 34.376 42.6288 33.92 42.2448 33.344C41.8768 32.752 41.6928 32.088 41.6928 31.352C41.6928 30.504 41.9088 29.832 42.3408 29.336C42.7888 28.824 43.4928 28.456 44.4528 28.232C45.4128 28.008 46.7088 27.896 48.3408 27.896H48.9888V27.608C48.9888 27.048 48.8608 26.648 48.6048 26.408C48.3488 26.152 47.9168 26.024 47.3088 26.024C46.6528 26.024 45.6928 26.248 44.4288 26.696C44.0608 26.824 43.7488 26.888 43.4928 26.888C43.0928 26.888 42.7728 26.744 42.5328 26.456C42.2928 26.168 42.1728 25.792 42.1728 25.328C42.1728 24.976 42.2448 24.688 42.3888 24.464C42.5328 24.24 42.7648 24.04 43.0848 23.864C43.6448 23.576 44.3488 23.344 45.1968 23.168C46.0448 22.992 46.8768 22.904 47.6928 22.904ZM47.0208 32.336C47.5968 32.336 48.0688 32.136 48.4368 31.736C48.8048 31.32 48.9888 30.792 48.9888 30.152V29.864H48.6048C47.5808 29.864 46.8528 29.96 46.4208 30.152C45.9888 30.328 45.7728 30.632 45.7728 31.064C45.7728 31.432 45.8848 31.736 46.1088 31.976C46.3488 32.216 46.6528 32.336 47.0208 32.336ZM63.335 24.152C63.511 23.752 63.751 23.456 64.055 23.264C64.375 23.072 64.719 22.976 65.087 22.976C65.615 22.976 66.079 23.152 66.479 23.504C66.895 23.856 67.103 24.28 67.103 24.776C67.103 25.048 67.039 25.312 66.911 25.568L62.711 33.92C62.519 34.32 62.239 34.632 61.871 34.856C61.519 35.064 61.127 35.168 60.695 35.168C60.263 35.168 59.863 35.064 59.495 34.856C59.127 34.632 58.847 34.32 58.655 33.92L54.455 25.568C54.327 25.28 54.263 25.024 54.263 24.8C54.263 24.288 54.479 23.856 54.911 23.504C55.359 23.136 55.871 22.952 56.447 22.952C56.831 22.952 57.183 23.056 57.503 23.264C57.839 23.456 58.095 23.752 58.271 24.152L60.815 29.648L63.335 24.152ZM77.7656 31.208C78.1336 31.208 78.4296 31.352 78.6536 31.64C78.8936 31.928 79.0136 32.304 79.0136 32.768C79.0136 33.408 78.7016 33.896 78.0776 34.232C77.5336 34.504 76.8856 34.736 76.1336 34.928C75.3976 35.104 74.7176 35.192 74.0936 35.192C72.7816 35.192 71.6376 34.944 70.6616 34.448C69.6856 33.952 68.9336 33.24 68.4056 32.312C67.8776 31.384 67.6136 30.296 67.6136 29.048C67.6136 27.864 67.8616 26.808 68.3576 25.88C68.8696 24.936 69.5736 24.208 70.4696 23.696C71.3816 23.168 72.4056 22.904 73.5416 22.904C74.6456 22.904 75.6136 23.144 76.4456 23.624C77.2776 24.104 77.9176 24.784 78.3656 25.664C78.8296 26.544 79.0616 27.576 79.0616 28.76C79.0616 29.128 78.9736 29.416 78.7976 29.624C78.6376 29.816 78.3976 29.912 78.0776 29.912H71.7416C71.8536 30.68 72.1016 31.232 72.4856 31.568C72.8696 31.904 73.4376 32.072 74.1896 32.072C74.5896 32.072 74.9576 32.032 75.2936 31.952C75.6296 31.856 76.0056 31.728 76.4216 31.568C76.6616 31.472 76.8936 31.392 77.1176 31.328C77.3576 31.248 77.5736 31.208 77.7656 31.208ZM73.6616 25.784C73.1016 25.784 72.6536 25.968 72.3176 26.336C71.9816 26.688 71.7816 27.208 71.7176 27.896H75.4856C75.3896 26.488 74.7816 25.784 73.6616 25.784ZM83.1453 35.144C82.5373 35.144 82.0253 34.984 81.6093 34.664C81.2093 34.328 81.0093 33.832 81.0093 33.176V19.952C81.0093 19.296 81.2093 18.8 81.6093 18.464C82.0253 18.128 82.5373 17.96 83.1453 17.96C83.7533 17.96 84.2573 18.128 84.6573 18.464C85.0733 18.8 85.2813 19.296 85.2813 19.952V33.176C85.2813 33.832 85.0733 34.328 84.6573 34.664C84.2573 34.984 83.7533 35.144 83.1453 35.144ZM97.3593 31.208C97.7273 31.208 98.0233 31.352 98.2473 31.64C98.4873 31.928 98.6073 32.304 98.6073 32.768C98.6073 33.408 98.2953 33.896 97.6713 34.232C97.1273 34.504 96.4793 34.736 95.7273 34.928C94.9913 35.104 94.3113 35.192 93.6873 35.192C92.3753 35.192 91.2313 34.944 90.2553 34.448C89.2793 33.952 88.5273 33.24 87.9993 32.312C87.4713 31.384 87.2073 30.296 87.2073 29.048C87.2073 27.864 87.4553 26.808 87.9513 25.88C88.4633 24.936 89.1673 24.208 90.0633 23.696C90.9753 23.168 91.9993 22.904 93.1353 22.904C94.2393 22.904 95.2073 23.144 96.0393 23.624C96.8713 24.104 97.5113 24.784 97.9593 25.664C98.4233 26.544 98.6553 27.576 98.6553 28.76C98.6553 29.128 98.5673 29.416 98.3913 29.624C98.2313 29.816 97.9913 29.912 97.6713 29.912H91.3353C91.4473 30.68 91.6953 31.232 92.0793 31.568C92.4633 31.904 93.0313 32.072 93.7833 32.072C94.1833 32.072 94.5513 32.032 94.8873 31.952C95.2233 31.856 95.5993 31.728 96.0153 31.568C96.2553 31.472 96.4873 31.392 96.7113 31.328C96.9513 31.248 97.1673 31.208 97.3593 31.208ZM93.2553 25.784C92.6953 25.784 92.2473 25.968 91.9113 26.336C91.5753 26.688 91.3753 27.208 91.3113 27.896H95.0793C94.9833 26.488 94.3753 25.784 93.2553 25.784ZM108.091 22.952C108.635 22.904 109.067 23.032 109.387 23.336C109.707 23.624 109.867 24.056 109.867 24.632C109.867 25.272 109.715 25.736 109.411 26.024C109.123 26.312 108.595 26.496 107.827 26.576L107.107 26.648C106.307 26.744 105.731 27 105.379 27.416C105.043 27.816 104.875 28.368 104.875 29.072V33.176C104.875 33.832 104.667 34.328 104.251 34.664C103.851 34.984 103.347 35.144 102.739 35.144C102.131 35.144 101.619 34.984 101.203 34.664C100.803 34.328 100.603 33.832 100.603 33.176V24.872C100.603 24.264 100.803 23.792 101.203 23.456C101.619 23.12 102.115 22.952 102.691 22.952C103.283 22.952 103.755 23.112 104.107 23.432C104.475 23.752 104.659 24.2 104.659 24.776V25.232C104.915 24.528 105.331 23.984 105.907 23.6C106.499 23.216 107.115 23.008 107.755 22.976L108.091 22.952Z" fill="#24E2B5"/>
<defs>
<filter id="filter0_d" x="0.53891" y="0.416748" width="72.2394" height="47.428" filterUnits="userSpaceOnUse" color-interpolation-filters="sRGB">
<feFlood flood-opacity="0" result="BackgroundImageFix"/>
<feColorMatrix in="SourceAlpha" type="matrix" values="0 0 0 0 0 0 0 0 0 0 0 0 0 0 0 0 0 0 127 0"/>
<feOffset dy="4"/>
<feGaussianBlur stdDeviation="2"/>
<feColorMatrix type="matrix" values="0 0 0 0 0 0 0 0 0 0 0 0 0 0 0 0 0 0 0.25 0"/>
<feBlend mode="normal" in2="BackgroundImageFix" result="effect1_dropShadow"/>
<feBlend mode="normal" in="SourceGraphic" in2="effect1_dropShadow" result="shape"/>
</filter>
<filter id="filter1_d" x="24.2777" y="0.416748" width="72.2393" height="47.428" filterUnits="userSpaceOnUse" color-interpolation-filters="sRGB">
<feFlood flood-opacity="0" result="BackgroundImageFix"/>
<feColorMatrix in="SourceAlpha" type="matrix" values="0 0 0 0 0 0 0 0 0 0 0 0 0 0 0 0 0 0 127 0"/>
<feOffset dy="4"/>
<feGaussianBlur stdDeviation="2"/>
<feColorMatrix type="matrix" values="0 0 0 0 0 0 0 0 0 0 0 0 0 0 0 0 0 0 0.25 0"/>
<feBlend mode="normal" in2="BackgroundImageFix" result="effect1_dropShadow"/>
<feBlend mode="normal" in="SourceGraphic" in2="effect1_dropShadow" result="shape"/>
</filter>
<filter id="filter2_d" x="46.5921" y="0.416748" width="72.2394" height="47.428" filterUnits="userSpaceOnUse" color-interpolation-filters="sRGB">
<feFlood flood-opacity="0" result="BackgroundImageFix"/>
<feColorMatrix in="SourceAlpha" type="matrix" values="0 0 0 0 0 0 0 0 0 0 0 0 0 0 0 0 0 0 127 0"/>
<feOffset dy="4"/>
<feGaussianBlur stdDeviation="2"/>
<feColorMatrix type="matrix" values="0 0 0 0 0 0 0 0 0 0 0 0 0 0 0 0 0 0 0.25 0"/>
<feBlend mode="normal" in2="BackgroundImageFix" result="effect1_dropShadow"/>
<feBlend mode="normal" in="SourceGraphic" in2="effect1_dropShadow" result="shape"/>
</filter>
</defs>
</svg>
