<?xml version="1.0" encoding="iso-8859-1"?>
<!-- Generator: Adobe Illustrator 19.0.0, SVG Export Plug-In . SVG Version: 6.00 Build 0)  -->
<svg version="1.1" id="Capa_1" xmlns="http://www.w3.org/2000/svg" xmlns:xlink="http://www.w3.org/1999/xlink" x="0px" y="0px"
	 viewBox="0 0 512 512" style="enable-background:new 0 0 512 512;" xml:space="preserve">
<g>
	<g>
		<path fill="#26c7ac" d="M319.881,81.33C306.6,54.791,290,22.721,291.117,2.706C279.606,1.111,267.944,0,256,0
			C181.461,0,114.505,33.342,67.839,84.498c24.289-1.068,51.213-1.756,62.521,17.459c10.444,17.783-0.791,40.034-10.137,55.21
			c-25.342,41.162-23.613,53.804-22.471,56.689c1.582,4.028,11.499,6.782,20.259,9.199c5.817,1.611,11.534,3.607,17.067,5.806
			c-3.53-17.184,0.659-34.182,12.684-46.207c20.303-20.288,42.202-9.331,55.298-2.813c14.312,7.178,16.538,6.914,20.669,2.813
			c10.776-10.776,27.413-29.905,86.572-29.722c32.578,0,35.654-2.827,35.654-10.313C345.955,133.493,330.267,102.101,319.881,81.33z
			"/>
	</g>
</g>
<g>
	<g>
		<path fill="#26c7ac" d="M358.349,314.346c-32.135-7.039-48.831-16.901-66.123-45.674c-2.007-3.369-5.376-8.994-6.958-9.741h-0.029
			c-7.295,0-10.532,2.344-16.992,7.002c-9.218,6.663-21.436,15.421-46.415,17.703c1.34,3.428,2.177,6.965,2.177,10.92v25.327
			c1.273,2.108,11.058,7.704,16.903,11.044c15.029,8.613,33.75,19.307,33.75,39.595c0,82.91,11.952,121.579,20.338,138.28
			c0.326-0.049,0.652-0.099,0.978-0.15c-0.015-21.81,0.002-58.717,0.002-67.641c0-19.453,13.853-32.988,30.684-48.677
			c50.277-46.807,43.14-71.567,44.385-74.59C369.848,316.865,362.934,315.356,358.349,314.346z"/>
	</g>
</g>
<g>
	<g>
		<path fill="#ec5a4a" d="M244.662,370.521c-0.85-3.369-12.861-10.239-18.647-13.55c-14.253-8.145-32.107-18.296-32.107-37.09v-25.327
			c-3.726-7.176-62.115-36.561-83.894-42.583c-14.751-4.087-33.12-9.17-40.181-27.144c-7.236-18.413,0.19-43.359,24.844-83.394
			c11.323-18.384,9.771-24.346,9.756-24.404c-3.867-3.926-27.144-2.9-37.09-2.49c-8.459,0.339-16.199,0.434-23.271-0.132
			C16.903,154.944,0,203.641,0,256c0,140.61,115.39,256,256,256c2.26,0,4.449-0.28,6.694-0.339
			C250.946,480.949,244.662,432.349,244.662,370.521z"/>
	</g>
</g>
<g>
	<g>
		<path fill="#ec5a4a" d="M321.118,8.743c2.373,11.667,16.115,40.245,25.585,59.185c18.208,36.387,29.253,59.576,29.253,74.693
			c0,40.313-41.104,40.313-65.654,40.313c-36.268-0.108-48.331,3.915-65.361,20.933c-20.288,20.288-42.188,9.36-55.298,2.813
			c-14.326-7.163-16.523-6.929-20.669-2.813c-8.555,8.569-5.142,19.98-3.267,24.492c12.285,29.707,56.565,33.81,84.961,13.257
			c7.837-5.654,17.578-12.7,34.307-12.7c18.428,0,26.851,14.077,33.003,24.346c12.711,21.315,22.667,26.499,46.787,31.787
			c11.763,2.578,25.093,5.493,32.212,17.622c4.916,8.35,4.935,19.041,3.442,29.648c-5.2,37.163-33.003,63.062-53.306,81.973
			c-8.101,7.544-21.954,20.186-22.1,24.697c0,9.39-0.011,41.305-0.013,63.194C432.001,471.893,512,372.57,512,256
			C512,137.928,430.229,37.635,321.118,8.743z"/>
	</g>
</g>
<g>
</g>
<g>
</g>
<g>
</g>
<g>
</g>
<g>
</g>
<g>
</g>
<g>
</g>
<g>
</g>
<g>
</g>
<g>
</g>
<g>
</g>
<g>
</g>
<g>
</g>
<g>
</g>
<g>
</g>
</svg>
