<svg  fill="#26c7ac" id="Capa_1" enable-background="new 0 0 510.732 510.732" height="512" viewBox="0 0 510.732 510.732" width="512" xmlns="http://www.w3.org/2000/svg"><g><path d="m503.232 234.218c4.142 0 7.5-3.358 7.5-7.5v-72.042c0-27.572-22.431-50.003-50.003-50.003h-15.459v-9.926c0-10.416-8.474-18.89-18.89-18.89h-13.362c-10.416 0-18.89 8.474-18.89 18.89v9.926h-38.193v-9.926c0-8.832-6.101-16.246-14.304-18.304v-16.615c0-22.211-18.07-40.282-40.282-40.282h-30.003c-4.142 0-7.5 3.358-7.5 7.5s3.358 7.5 7.5 7.5h30.003c13.94 0 25.282 11.341 25.282 25.282v16.03h-15v-16.03c0-5.669-4.612-10.282-10.282-10.282h-90.969c-5.669 0-10.282 4.612-10.282 10.282v16.03h-15v-16.03c0-13.94 11.341-25.282 25.282-25.282h29.003c4.142 0 7.5-3.358 7.5-7.5s-3.358-7.5-7.5-7.5h-29.003c-22.211 0-40.282 18.07-40.282 40.282v16.616c-8.203 2.058-14.304 9.472-14.304 18.304v9.926h-38.193v-9.926c0-10.416-8.474-18.89-18.89-18.89h-13.359c-10.416 0-18.89 8.474-18.89 18.89v9.926h-16.459c-27.572 0-50.003 22.431-50.003 50.003v286.507c0 27.572 22.431 50.003 50.003 50.003h410.727c27.572 0 50.003-22.431 50.003-50.003v-182.503c0-4.142-3.358-7.5-7.5-7.5s-7.5 3.358-7.5 7.5v182.503c0 19.301-15.702 35.003-35.003 35.003h-52.351v-163.526h1.598c19.432 0 35.24-15.809 35.24-35.24v-36.98c0-19.432-15.809-35.241-35.24-35.241h-1.598v-85.526h52.351c19.301 0 35.003 15.702 35.003 35.003v72.042c-.001 4.141 3.357 7.499 7.499 7.499zm-143.564-29.018c-19.432 0-35.24 15.809-35.24 35.241v36.98c0 19.432 15.809 35.24 35.24 35.24h1.598v163.526h-210.799v-53.851l44.046-15.673c7.8-2.776 11.887-11.38 9.112-19.18l-15.136-42.536c-2.775-7.8-11.379-11.888-19.18-9.112l-18.842 6.705v-29.878h1.598c19.432 0 35.24-15.809 35.24-35.24v-36.98c0-19.432-15.809-35.241-35.24-35.241h-1.598v-85.526h210.799v85.526h-1.598zm-256.314 217.976-23.891 8.488-15.127-42.555 39.018-13.884zm-1.598-125.515c-11.161 0-20.24-9.08-20.24-20.24v-36.98c0-11.161 9.08-20.241 20.24-20.241h50.308c11.161 0 20.24 9.08 20.24 20.241v36.98c0 11.161-9.08 20.24-20.24 20.24zm48.711 60.802 23.891-8.487 15.126 42.555-39.017 13.884zm146.862-253.789v-9.926c0-2.145 1.745-3.89 3.89-3.89h35.827c2.145 0 3.89 1.745 3.89 3.89v9.926zm-.697-40.128v11.898c-8.203 2.058-14.303 9.472-14.303 18.304v9.926h-52.926v-9.926c0-8.832-6.101-16.246-14.303-18.304v-11.898zm-125.836 30.202c0-2.145 1.745-3.89 3.89-3.89h35.827c2.145 0 3.89 1.745 3.89 3.89v9.926h-43.607zm-89.334 0c0-2.145 1.745-3.89 3.89-3.89h13.362c2.145 0 3.89 1.745 3.89 3.89v9.926h-21.142zm-66.462 346.436v-286.507c0-19.301 15.702-35.003 35.003-35.003h23.959 29.392v26.62c0 4.142 3.358 7.5 7.5 7.5s7.5-3.358 7.5-7.5v-26.62h17.113v85.526h-17.113v-26.943c0-4.142-3.358-7.5-7.5-7.5s-7.5 3.358-7.5 7.5v26.943h-1.598c-19.432 0-35.24 15.809-35.24 35.241v36.98c0 19.432 15.809 35.24 35.24 35.24h1.598v46.643l-44.045 15.673c-3.779 1.344-6.808 4.08-8.529 7.703s-1.928 7.699-.583 11.477l15.136 42.536c1.345 3.778 4.081 6.807 7.703 8.528 2.045.971 4.234 1.46 6.433 1.46 1.696 0 3.399-.292 5.044-.877l18.843-6.705v37.087h-53.353c-19.301.001-35.003-15.702-35.003-35.002zm103.354 35.003v-163.526h17.113v163.526zm275.024 0h-17.113v-163.526h17.113zm36.838-235.747v36.98c0 11.161-9.08 20.24-20.24 20.24h-50.308c-11.161 0-20.24-9.08-20.24-20.24v-36.98c0-11.161 9.08-20.241 20.24-20.241h50.308c11.161.001 20.24 9.081 20.24 20.241zm-53.95-35.24v-85.526h17.112v85.526zm32.863-100.526v-9.926c0-2.145 1.745-3.89 3.89-3.89h13.362c2.145 0 3.89 1.745 3.89 3.89v9.926z"/><path d="m157.305 275.161v-32.461c0-4.142-3.358-7.5-7.5-7.5h-45.789c-4.142 0-7.5 3.358-7.5 7.5v32.461c0 4.142 3.358 7.5 7.5 7.5h45.789c4.142 0 7.5-3.358 7.5-7.5zm-15-7.5h-30.789v-17.461h30.789z"/><path d="m354.428 242.7v32.461c0 4.142 3.358 7.5 7.5 7.5h45.789c4.142 0 7.5-3.358 7.5-7.5v-32.461c0-4.142-3.358-7.5-7.5-7.5h-45.789c-4.142 0-7.5 3.358-7.5 7.5zm15 7.5h30.789v17.461h-30.789z"/><path d="m316.758 191.82c.489-4.063-1.335-7.977-4.761-10.214l-54.109-35.351c-2.704-1.767-6.019-2.215-9.095-1.231s-5.515 3.274-6.69 6.283v.001l-24.662 63.128c-1.538 3.937-.668 8.269 2.27 11.308 2.063 2.134 4.8 3.27 7.627 3.27 1.198 0 2.413-.204 3.599-.622l78.771-27.776c3.86-1.364 6.561-4.733 7.05-8.796zm-81.913 19.286 19.293-49.385 42.33 27.655z"/><path d="m251.45 399.206c0 24.524 19.952 44.477 44.477 44.477s44.477-19.952 44.477-44.477-19.952-44.477-44.477-44.477-44.477 19.952-44.477 44.477zm73.953 0c0 16.253-13.223 29.477-29.477 29.477s-29.477-13.223-29.477-29.477 13.223-29.477 29.477-29.477 29.477 13.223 29.477 29.477z"/></g></svg>