<?xml version="1.0"?>
<svg xmlns="http://www.w3.org/2000/svg" width="512" height="512" viewBox="0 0 128 128"><g><path fill="#26c7ac" d="M126.25,76.638H111.227V66.263a15.769,15.769,0,0,0-15.75-15.75H89.063V25.84c5.772-3.388,7.019-6.973,7.019-9.435C96.082,7.051,78.684,0,55.613,0S15.145,7.051,15.145,16.405c0,2.462,1.247,6.047,7.019,9.435V50.513H15.75A15.768,15.768,0,0,0,0,66.263v44.5a5.757,5.757,0,0,0,5.75,5.75H8.625v6.735a4.756,4.756,0,0,0,4.75,4.75H20.25a4.756,4.756,0,0,0,4.75-4.75v-6.735H86.227v6.735a4.755,4.755,0,0,0,4.75,4.75h6.875a4.756,4.756,0,0,0,4.75-4.75v-6.735h2.875a5.757,5.757,0,0,0,5.75-5.75V91.388H126.25a1.75,1.75,0,0,0,1.75-1.75V78.388A1.751,1.751,0,0,0,126.25,76.638ZM24.745,23.276c-3.934-2.12-6.1-4.56-6.1-6.871C18.645,10.3,33.827,3.5,55.613,3.5s36.969,6.8,36.969,12.908c0,2.311-2.166,4.751-6.1,6.871a1.751,1.751,0,0,0-.919,1.541v25.7h-59.9v-25.7A1.751,1.751,0,0,0,24.745,23.276Zm-9,30.737H95.477a12.264,12.264,0,0,1,12.25,12.25V100H3.5V66.263A12.263,12.263,0,0,1,15.75,54.013Zm5.75,69.234a1.251,1.251,0,0,1-1.25,1.25H13.375a1.251,1.251,0,0,1-1.25-1.25v-6.735H21.5Zm77.6,0a1.252,1.252,0,0,1-1.25,1.25H90.977a1.251,1.251,0,0,1-1.25-1.25v-6.735H99.1Zm6.375-10.235H5.75a2.252,2.252,0,0,1-2.25-2.25V103.5H107.727v7.262A2.253,2.253,0,0,1,105.477,113.012ZM124.5,87.888H111.227v-7.75H124.5Z"/><path fill="#ec5a4a" d="M41.376,35.862A1.731,1.731,0,0,0,42,35.745L70.878,24.631a1.75,1.75,0,1,0-1.256-3.266L40.747,32.479a1.75,1.75,0,0,0,.629,3.383Z"/><path fill="#ec5a4a" d="M48.163,24.358a1.757,1.757,0,0,0,.628-.117l15.3-5.889a1.75,1.75,0,1,0-1.257-3.267l-15.3,5.889a1.75,1.75,0,0,0,.629,3.384Z"/><path fill="#ec5a4a" d="M62.834,32.858l-15.3,5.888a1.75,1.75,0,1,0,1.257,3.267l15.3-5.889a1.75,1.75,0,1,0-1.257-3.266Z"/><path fill="#ec5a4a" d="M16.372,73.257A6.372,6.372,0,1,0,10,66.885,6.38,6.38,0,0,0,16.372,73.257Zm0-9.244A2.872,2.872,0,1,1,13.5,66.885,2.875,2.875,0,0,1,16.372,64.013Z"/><path fill="#ec5a4a" d="M35.623,73.257a6.372,6.372,0,1,0-6.371-6.372A6.38,6.38,0,0,0,35.623,73.257Zm0-9.244a2.872,2.872,0,1,1-2.871,2.872A2.875,2.875,0,0,1,35.623,64.013Z"/></g></svg>
